<?xml version="1.0" encoding="UTF-8"?>
<svg version="1.1" xmlns="http://www.w3.org/2000/svg" width="1024" height="535">
<path d="M0 0 C337.92 0 675.84 0 1024 0 C1024 176.55 1024 353.1 1024 535 C686.08 535 348.16 535 0 535 C0 358.45 0 181.9 0 0 Z " fill="#000000" transform="translate(0,0)"/>
<path d="M0 0 C0.75293264 -0.00438225 1.50586528 -0.00876451 2.28161407 -0.01327956 C4.81801455 -0.02669088 7.35438027 -0.03285164 9.89080811 -0.03897095 C11.70400653 -0.04687009 13.51720338 -0.05513892 15.33039856 -0.06375122 C21.29680882 -0.08999335 27.26322617 -0.10528114 33.22967529 -0.11953735 C35.28189855 -0.12489615 37.33412175 -0.13027366 39.38634491 -0.13566971 C47.92187517 -0.15730173 56.45740351 -0.17603912 64.99295425 -0.1872921 C77.23401684 -0.20353521 89.47476218 -0.23671815 101.71570516 -0.29369295 C110.31789129 -0.332369 118.91999248 -0.35192203 127.52226329 -0.35721266 C132.66233783 -0.36086935 137.80207418 -0.3729243 142.94205475 -0.4053154 C147.77826787 -0.43535484 152.61393745 -0.44172259 157.45022392 -0.42993164 C159.22476412 -0.42971056 160.99932922 -0.4380442 162.77378273 -0.45558548 C165.1982325 -0.4782466 167.62070622 -0.46999809 170.04516602 -0.45410156 C171.09664224 -0.47492469 171.09664224 -0.47492469 172.1693604 -0.49616849 C177.72740699 -0.40647889 180.00314914 1.3692175 183.77655029 5.15390015 C184.97340699 7.54761354 184.89976735 9.01211275 184.89680481 11.68432617 C184.89886681 13.11464928 184.89886681 13.11464928 184.90097046 14.5738678 C184.89737518 15.6233107 184.89377991 16.6727536 184.89007568 17.7539978 C184.89022171 18.85644333 184.89036774 19.95888885 184.89051819 21.09474182 C184.88981941 24.75250185 184.88202862 28.41021147 184.87420654 32.06796265 C184.87234224 34.59859184 184.87091839 37.12922139 184.86991882 39.65985107 C184.86648586 45.64863471 184.85859785 51.63739657 184.84856933 57.62617147 C184.83740063 64.44349794 184.83189583 71.26082528 184.8268739 78.07815862 C184.81641504 92.10341773 184.79807258 106.12865387 184.77655029 120.15390015 C176.19655029 120.15390015 167.61655029 120.15390015 158.77655029 120.15390015 C158.77655029 88.80390015 158.77655029 57.45390015 158.77655029 25.15390015 C110.26655029 25.15390015 61.75655029 25.15390015 11.77655029 25.15390015 C11.77655029 91.15390015 11.77655029 157.15390015 11.77655029 225.15390015 C60.28655029 225.15390015 108.79655029 225.15390015 158.77655029 225.15390015 C158.77655029 199.08390015 158.77655029 173.01390015 158.77655029 146.15390015 C167.35655029 146.15390015 175.93655029 146.15390015 184.77655029 146.15390015 C184.88953072 158.82787079 184.98125515 171.50150674 185.03561115 184.17586708 C185.06169989 190.06115052 185.09708569 195.94607144 185.15374756 201.83114624 C185.20809169 207.51106706 185.23797627 213.19063928 185.25093651 218.87080002 C185.26017196 221.03736229 185.27820678 223.20390558 185.30520058 225.37031937 C185.34152192 228.40618297 185.34649423 231.44060797 185.34417725 234.47665405 C185.37114182 235.81885513 185.37114182 235.81885513 185.39865112 237.18817139 C185.36351173 241.44598481 185.1214027 244.28998206 182.42857361 247.69622803 C178.33519275 251.48962907 174.79461215 251.30089434 169.50204468 251.29434204 C168.75571915 251.29731316 168.00939362 251.30028429 167.24045217 251.30334544 C164.73245407 251.31203697 162.22450368 251.31354106 159.7164917 251.31503296 C157.921228 251.31966077 156.1259653 251.32468538 154.33070374 251.33007812 C149.44847034 251.34320666 144.56625069 251.34964783 139.6840024 251.35408878 C136.63510102 251.35701843 133.58620341 251.36112301 130.53730392 251.36559296 C121.00174146 251.37926832 111.46618761 251.38893511 101.93061602 251.39279485 C90.91598331 251.39727756 79.90147457 251.41483519 68.88687956 251.44379544 C60.37725463 251.46539446 51.86766462 251.47549816 43.35801256 251.47683597 C38.27341282 251.47788516 33.18892961 251.48381737 28.10435867 251.50165558 C23.32240124 251.51810577 18.54064832 251.52030664 13.75867271 251.51151657 C12.00307735 251.51074459 10.24747112 251.51511007 8.49190331 251.52497482 C6.09603168 251.53764861 3.70088944 251.53184282 1.30502319 251.52139282 C0.26187374 251.53347743 0.26187374 251.53347743 -0.80234945 251.54580617 C-6.16306768 251.49108478 -9.08236803 250.06716805 -13.01129913 246.55628014 C-14.94413022 242.72557228 -14.64272849 238.94674923 -14.61785889 234.71582031 C-14.62394999 233.7488341 -14.63004109 232.78184788 -14.63631678 231.78555906 C-14.65300147 228.53663892 -14.64816309 225.28810837 -14.64337158 222.03915405 C-14.65070875 219.71334931 -14.65929394 217.38754822 -14.66903687 215.06175232 C-14.69129918 208.73737574 -14.69418116 202.41312927 -14.69228935 196.08871889 C-14.69216986 190.81272003 -14.70072521 185.53674895 -14.70906687 180.2607578 C-14.72985968 167.10322783 -14.7304448 153.94576726 -14.72325975 140.78822665 C-14.71768486 129.3628566 -14.73850679 117.93771083 -14.77162021 106.51239319 C-14.80535839 94.78042951 -14.82052535 83.04857325 -14.81590319 71.31656015 C-14.81383281 64.73010328 -14.81935959 58.14386971 -14.84379578 51.55745316 C-14.86601512 45.36365185 -14.86422468 39.17031802 -14.84386826 32.97651482 C-14.84044967 30.70209708 -14.84558358 28.42764818 -14.85985184 26.15327263 C-14.87797642 23.05028206 -14.86534469 19.94888876 -14.84490967 16.84594727 C-14.85742752 15.94399805 -14.86994536 15.04204883 -14.88284254 14.11276782 C-14.8221421 9.81915511 -14.55809476 7.01818697 -11.80960846 3.6106472 C-7.87344175 -0.12855325 -5.1939914 0.00364181 0 0 Z " fill="#FDFDFD" transform="translate(131.22344970703125,132.84609985351563)"/>
<path d="M0 0 C8.58 0 17.16 0 26 0 C26.33 18.15 26.66 36.3 27 55 C28.98 52.525 28.98 52.525 31 50 C42.10046134 42.19189591 54.72903442 39.3164491 68.07421875 41.50390625 C82.08673822 44.64371535 93.33504699 51.94098977 101.6875 63.7578125 C109.30336549 76.76824938 110.89893281 91.01821991 108.3515625 105.75 C104.44405033 119.64337662 96.10775016 130.59636199 83.6171875 137.71484375 C71.8878749 143.47446143 57.22497063 145.19972205 44.6875 141.375 C37.57249941 138.7244978 32.12895476 134.55636765 27 129 C26.67 132.63 26.34 136.26 26 140 C17.42 140 8.84 140 0 140 C0 93.8 0 47.6 0 0 Z " fill="#FDFDFD" transform="translate(372,106)"/>
<path d="M0 0 C11.66096813 8.64071738 18.17894346 20.62573422 20.8671875 34.796875 C22.60599085 47.05129862 20.14443185 60.30145631 13.27734375 70.6875 C4.38700536 82.31066615 -7.23928186 90.01466338 -21.72265625 92.6875 C-37.73721632 94.31204515 -53.58994903 92.66477721 -66.62109375 82.48828125 C-67.31460937 81.89402344 -68.008125 81.29976563 -68.72265625 80.6875 C-69.35429687 80.16542969 -69.9859375 79.64335937 -70.63671875 79.10546875 C-79.9465249 70.67742838 -85.27391522 58.82347879 -86.03515625 46.41796875 C-86.61681785 31.10033993 -82.69252294 17.95212769 -72.09765625 6.5 C-52.90974532 -11.52280059 -22.0643174 -14.30425763 0 0 Z " fill="#FCFCFC" transform="translate(560.72265625,300.3125)"/>
<path d="M0 0 C11.4511493 7.96775773 17.1828872 18.10654881 20.5 31.375 C20.5 37.315 20.5 43.255 20.5 49.375 C-5.24 49.375 -30.98 49.375 -57.5 49.375 C-53.62161331 60.0405634 -51.46169696 65.97583783 -41.52734375 70.6484375 C-33.02422921 73.69579647 -24.33736873 73.14202008 -15.984375 70.03125 C-13.36873098 68.28748732 -12.35189471 66.77661139 -10.54296875 64.25 C-8.2272771 61.50093695 -7.05346555 60.49512646 -3.50341797 59.72460938 C0.00763172 59.58845523 3.42970191 59.67597599 6.9375 59.875 C8.14599609 59.91109375 9.35449219 59.9471875 10.59960938 59.984375 C13.56970002 60.07829091 16.53318135 60.2094871 19.5 60.375 C16.07493613 71.65950994 9.11974145 80.71308151 -0.9453125 86.87109375 C-3.42279136 88.1797307 -5.91110059 89.30540776 -8.5 90.375 C-9.21027344 90.6946875 -9.92054688 91.014375 -10.65234375 91.34375 C-22.10200232 95.69019332 -38.27515613 94.99802462 -49.5 90.375 C-50.97146484 89.77171875 -50.97146484 89.77171875 -52.47265625 89.15625 C-64.91497815 83.4934992 -74.23103058 74.55121494 -79.55859375 61.8515625 C-84.21916827 48.42732394 -84.27510973 33.44139871 -78.5 20.375 C-71.5649475 7.04916495 -61.60014851 -1.94947946 -47.4375 -7 C-31.19848604 -11.60681247 -14.24446586 -8.73923902 0 0 Z " fill="#FDFDFD" transform="translate(644.5,155.625)"/>
<path d="M0 0 C14.27608224 -0.64460398 26.54397498 4.1046686 37.4609375 13.05078125 C46.80588812 21.64527694 52.75696941 33.28794823 53.4609375 45.97265625 C53.5690234 55.6119532 53.5690234 55.6119532 52.25390625 58.2421875 C27.50390625 58.5721875 2.75390625 58.9021875 -22.74609375 59.2421875 C-18.85741429 70.93504528 -18.85741429 70.93504528 -9.81640625 78.20703125 C-2.48670234 81.8718832 5.06652684 82.36258226 12.87890625 80.1171875 C18.68484521 77.98190347 22.84897733 74.34958088 26.25390625 69.2421875 C28.77587891 68.90161133 28.77587891 68.90161133 31.91796875 68.94921875 C33.03945313 68.95888672 34.1609375 68.96855469 35.31640625 68.97851562 C37.07984375 69.0162207 37.07984375 69.0162207 38.87890625 69.0546875 C40.65394531 69.07499023 40.65394531 69.07499023 42.46484375 69.09570312 C45.39498164 69.13114834 48.32422084 69.18055981 51.25390625 69.2421875 C49.35956185 79.78711451 41.77914857 88.14764709 33.25390625 94.2421875 C19.38146924 102.09705463 4.56709041 104.55565185 -11.05859375 101.1171875 C-24.45171785 97.2153966 -35.19085449 89.1672767 -42.23828125 77.12109375 C-48.75871363 64.6714599 -50.21997248 49.78036024 -46.86328125 36.02734375 C-44.45133868 28.67171757 -40.95703278 22.92062872 -35.74609375 17.2421875 C-35.27042969 16.64148438 -34.79476562 16.04078125 -34.3046875 15.421875 C-27.58904801 7.60157418 -15.28975721 1.80554924 -5.1484375 0.421875 C-3.43133624 0.29344141 -1.71524004 0.15127295 0 0 Z " fill="#FCFCFC" transform="translate(822.74609375,290.7578125)"/>
<path d="M0 0 C8.87152804 6.38374504 13.46203325 14.45670862 15.25 25.25 C15.33571455 27.51863488 15.36773736 29.7895648 15.36352539 32.05981445 C15.36367142 32.72378738 15.36381744 33.38776031 15.3639679 34.07185364 C15.36327483 36.25236349 15.35551099 38.43278644 15.34765625 40.61328125 C15.34578992 42.1307114 15.34436703 43.64814215 15.34336853 45.16557312 C15.33956032 49.14891235 15.32974459 53.1322148 15.31866455 57.11553955 C15.30841389 61.18444318 15.30386309 65.25335279 15.29882812 69.32226562 C15.28812074 77.29819579 15.27053774 85.27408908 15.25 93.25 C6.67 93.25 -1.91 93.25 -10.75 93.25 C-10.7593457 91.41896729 -10.76869141 89.58793457 -10.77832031 87.70141602 C-10.81397495 81.62237523 -10.86785296 75.54370466 -10.93390274 69.464921 C-10.97325618 65.78266798 -11.00550341 62.10064974 -11.02099609 58.41821289 C-11.03624368 54.8582234 -11.07082954 51.29887991 -11.11830902 47.73917961 C-11.1401637 45.73373652 -11.14246675 43.72811073 -11.14434814 41.72254944 C-11.25847994 34.54189339 -11.71180454 28.37506977 -15.75 22.25 C-21.16805569 17.31354926 -27.01721658 17.65601927 -34.140625 17.8671875 C-40.46182661 18.53761797 -44.04117246 20.22638845 -48.125 25.0625 C-52.09019636 32.84038517 -52.0833803 40.01204979 -52.1640625 48.62109375 C-52.18342865 49.89855972 -52.2027948 51.1760257 -52.2227478 52.49220276 C-52.27223006 55.86720531 -52.31357072 59.24210387 -52.35089111 62.61724854 C-52.39109741 66.06979927 -52.44200999 69.52219153 -52.4921875 72.97460938 C-52.58963516 79.73301085 -52.66936237 86.49129354 -52.75 93.25 C-61.33 93.25 -69.91 93.25 -78.75 93.25 C-78.75 61.57 -78.75 29.89 -78.75 -2.75 C-70.5 -2.75 -62.25 -2.75 -53.75 -2.75 C-53.42 0.88 -53.09 4.51 -52.75 8.25 C-51.80125 7.198125 -50.8525 6.14625 -49.875 5.0625 C-36.79050092 -8.02199908 -15.4763281 -9.63085975 0 0 Z " fill="#FCFCFC" transform="translate(746.75,296.75)"/>
<path d="M0 0 C7.21944432 6.11872187 12.20609607 13.08198574 15.36328125 22.02734375 C15.36328125 23.01734375 15.36328125 24.00734375 15.36328125 25.02734375 C10.94711135 25.20145478 6.53182122 25.30814137 2.11328125 25.40234375 C0.85902344 25.45261719 -0.39523437 25.50289063 -1.6875 25.5546875 C-5.10137753 25.60945559 -8.2697204 25.60016699 -11.63671875 25.02734375 C-14.22265625 22.18359375 -14.22265625 22.18359375 -15.63671875 19.02734375 C-21.75664508 14.09931318 -28.56789199 13.23428351 -36.23046875 13.55078125 C-43.42935062 14.55796426 -48.62884161 17.30580738 -53.13671875 23.02734375 C-57.98714521 30.3234782 -59.60299255 38.33087952 -58.63671875 47.02734375 C-56.67804833 54.98514185 -53.60008058 61.65145392 -46.70703125 66.33984375 C-39.27902764 70.25791159 -30.17206829 70.40862905 -22.19921875 67.96484375 C-17.97143528 66.09279556 -15.14420037 62.84496282 -12.63671875 59.02734375 C-12.14171875 57.54234375 -12.14171875 57.54234375 -11.63671875 56.02734375 C-2.72671875 56.02734375 6.18328125 56.02734375 15.36328125 56.02734375 C12.46891279 69.05200183 6.96885689 77.9276903 -4.26171875 85.21484375 C-17.56650831 92.63291028 -32.40097911 94.15949903 -47.30078125 91.33203125 C-60.99187934 87.12210703 -72.39209949 78.32350084 -79.3515625 65.7421875 C-85.91474179 51.8777206 -86.66742056 37.54451182 -81.63671875 23.02734375 C-77.53729138 11.76689137 -68.71188742 1.8863918 -58.18359375 -3.796875 C-39.05109129 -12.62951801 -17.39163156 -13.01151695 0 0 Z " fill="#FDFDFD" transform="translate(448.63671875,300.97265625)"/>
<path d="M0 0 C0.88341064 0.00563965 1.76682129 0.0112793 2.67700195 0.01708984 C13.50423844 0.21731888 22.97430569 1.96498224 31.3125 9.3125 C36.70449126 15.12193574 39.3125 20.26489983 39.3125 28.3125 C31.3925 28.3125 23.4725 28.3125 15.3125 28.3125 C14.3225 26.3325 13.3325 24.3525 12.3125 22.3125 C7.5606096 18.56100758 2.237338 18.9189459 -3.56640625 18.81640625 C-7.33535162 19.41547516 -8.97711129 20.68053121 -11.6875 23.3125 C-13.08685013 26.11120027 -12.94015405 28.21748792 -12.6875 31.3125 C-6.96597777 38.32978504 5.62664529 39.09868631 13.9375 40.88671875 C24.8118939 43.36057722 33.90967195 46.76161482 40.3125 56.3125 C43.91246393 62.70243598 44.3516247 69.63643886 42.7734375 76.73828125 C39.86470076 86.24761289 34.14899635 92.87703383 25.4375 97.5625 C12.33435893 103.4967493 -5.5392136 103.51656076 -18.890625 98.5703125 C-27.88257374 94.52644728 -34.95784881 90.20409083 -38.71484375 80.71875 C-39.99367468 76.71135354 -40.6875 73.55341266 -40.6875 69.3125 C-36.62596834 69.07977312 -32.56614757 68.93795689 -28.5 68.8125 C-27.34951172 68.74546875 -26.19902344 68.6784375 -25.01367188 68.609375 C-21.72615766 68.53314279 -18.88975886 68.55292226 -15.6875 69.3125 C-13.73026313 71.20582382 -12.76473176 72.84527821 -11.69091797 75.3359375 C-10.16439977 78.34291837 -7.9585149 79.40739181 -4.9296875 80.6875 C0.7361332 82.26682284 6.1190942 82.28950738 11.375 79.5 C14.54218201 77.57680857 14.54218201 77.57680857 15.3125 74.3125 C15.66284911 69.9681711 15.85174591 67.415503 13.9375 63.5 C8.17065529 58.69429607 0.51234236 58.14481792 -6.6875 56.875 C-18.12823098 54.83277357 -28.48003937 51.3013181 -35.625 41.625 C-39.34971374 35.64288399 -39.16225772 30.19200806 -38.6875 23.3125 C-36.64544659 16.10525267 -32.16916239 10.45251772 -25.80859375 6.54296875 C-17.20361764 2.11662935 -9.64730009 -0.06416257 0 0 Z " fill="#FDFDFD" transform="translate(817.6875,146.6875)"/>
<path d="M0 0 C8.25 0 16.5 0 25 0 C25 9.9 25 19.8 25 30 C33.91 30 42.82 30 52 30 C52 36.6 52 43.2 52 50 C43.09 50 34.18 50 25 50 C25.0741825 56.40527486 25.15718083 62.80920038 25.26245117 69.21386719 C25.29559781 71.39022711 25.32366134 73.56667088 25.34643555 75.74316406 C25.38017038 78.88122103 25.4324962 82.01851675 25.48828125 85.15625 C25.49467117 86.12115356 25.5010611 87.08605713 25.50764465 88.0802002 C25.63548105 94.02408836 26.33015139 98.6428503 29 104 C31.70092539 106.09186602 34.18600413 106.27781098 37.546875 106.4140625 C38.30838867 106.44967285 39.06990234 106.4852832 39.85449219 106.52197266 C40.81000977 106.55597168 41.76552734 106.5899707 42.75 106.625 C45.8025 106.74875 48.855 106.8725 52 107 C52 113.6 52 120.2 52 127 C47.89159879 127.09249684 43.78589387 127.17192096 39.67700195 127.21972656 C38.28332186 127.23967995 36.8897237 127.26685319 35.49633789 127.30175781 C23.7850617 127.58750119 15.50051146 126.10978549 6.7265625 118 C1.80389251 112.29772165 -0.13113198 105.07542977 -0.11352539 97.68066406 C-0.11344986 96.61986633 -0.11337433 95.5590686 -0.11329651 94.46612549 C-0.10813522 93.32746033 -0.10297394 92.18879517 -0.09765625 91.015625 C-0.0962413 89.84489441 -0.09482635 88.67416382 -0.09336853 87.46795654 C-0.0877709 83.72861171 -0.0752188 79.98932674 -0.0625 76.25 C-0.0574847 73.71484461 -0.05292184 71.17968829 -0.04882812 68.64453125 C-0.03865313 62.42964588 -0.01907708 56.21488996 0 50 C-7.59 50 -15.18 50 -23 50 C-23 43.4 -23 36.8 -23 30 C-15.41 30 -7.82 30 0 30 C0 20.1 0 10.2 0 0 Z " fill="#FEFEFE" transform="translate(694,120)"/>
<path d="M0 0 C3.6196875 0.0309375 3.6196875 0.0309375 7.3125 0.0625 C7.3125 8.3125 7.3125 16.5625 7.3125 25.0625 C-1.1875 24.8125 -1.1875 24.8125 -3.81445312 24.70214844 C-10.56461914 24.60729116 -15.54250143 26.40321549 -20.7109375 30.7734375 C-21.37996094 31.59714844 -21.37996094 31.59714844 -22.0625 32.4375 C-22.52398438 32.98148438 -22.98546875 33.52546875 -23.4609375 34.0859375 C-26.18065181 38.46866184 -26.9385212 42.88909006 -27.00634766 47.97607422 C-27.02621735 49.11680389 -27.04608704 50.25753357 -27.06655884 51.43283081 C-27.07811005 52.64866852 -27.08966125 53.86450623 -27.1015625 55.1171875 C-27.12092865 56.37387238 -27.1402948 57.63055725 -27.1602478 58.92532349 C-27.20977724 62.24937688 -27.25109898 65.57332337 -27.28839111 68.89752197 C-27.32855934 72.29636391 -27.37948873 75.69504385 -27.4296875 79.09375 C-27.52721405 85.74993701 -27.6068923 92.40600061 -27.6875 99.0625 C-36.2675 99.0625 -44.8475 99.0625 -53.6875 99.0625 C-53.6875 67.3825 -53.6875 35.7025 -53.6875 3.0625 C-45.4375 3.0625 -37.1875 3.0625 -28.6875 3.0625 C-28.3575 6.0325 -28.0275 9.0025 -27.6875 12.0625 C-27.21441406 11.60359375 -26.74132812 11.1446875 -26.25390625 10.671875 C-18.46477433 3.44453233 -10.66096723 -0.128418 0 0 Z " fill="#FDFDFD" transform="translate(549.6875,146.9375)"/>
<path d="M0 0 C1 1 1 1 1.11352539 3.31665039 C1.10828857 4.31688232 1.10305176 5.31711426 1.09765625 6.34765625 C1.09443359 7.42724609 1.09121094 8.50683594 1.08789062 9.61914062 C1.07532227 11.32360352 1.07532227 11.32360352 1.0625 13.0625 C1.05798828 14.20267578 1.05347656 15.34285156 1.04882812 16.51757812 C1.03699747 19.34510351 1.0205141 22.1725264 1 25 C-0.55847656 24.91298828 -0.55847656 24.91298828 -2.1484375 24.82421875 C-11.66606705 24.4517848 -19.05778735 24.87988959 -26.609375 31.38671875 C-33.4018404 38.67863014 -33.4602326 47.45167765 -33.51171875 56.8125 C-33.52966995 58.02196289 -33.54762115 59.23142578 -33.56611633 60.47753906 C-33.62004513 64.31832454 -33.65406014 68.15898695 -33.6875 72 C-33.72068834 74.61329831 -33.75517939 77.22658041 -33.79101562 79.83984375 C-33.87819962 86.22657854 -33.93842091 92.61276229 -34 99 C-42.25 99 -50.5 99 -59 99 C-59 67.32 -59 35.64 -59 3 C-50.75 3 -42.5 3 -34 3 C-33.67 6.3 -33.34 9.6 -33 13 C-32.505 12.278125 -32.01 11.55625 -31.5 10.8125 C-23.62119029 1.94883907 -11.60607938 -1.24180273 0 0 Z " fill="#FDFDFD" transform="translate(655,291)"/>
<path d="M0 0 C2.35125 0.04125 4.7025 0.0825 7.125 0.125 C7.125 8.045 7.125 15.965 7.125 24.125 C3.969375 24.00125 3.969375 24.00125 0.75 23.875 C-6.70175743 23.89758108 -12.87455008 24.77005792 -18.71484375 29.66796875 C-25.88809211 37.33229524 -26.33159798 45.91585799 -26.38671875 55.9375 C-26.40466995 57.14696289 -26.42262115 58.35642578 -26.44111633 59.60253906 C-26.49504513 63.44332454 -26.52906014 67.28398695 -26.5625 71.125 C-26.59568834 73.73829831 -26.63017939 76.35158041 -26.66601562 78.96484375 C-26.75319962 85.35157854 -26.81342091 91.73776229 -26.875 98.125 C-35.125 98.125 -43.375 98.125 -51.875 98.125 C-51.875 66.445 -51.875 34.765 -51.875 2.125 C-43.625 2.125 -35.375 2.125 -26.875 2.125 C-26.545 5.425 -26.215 8.725 -25.875 12.125 C-25.38 11.403125 -24.885 10.68125 -24.375 9.9375 C-17.82792847 2.57204453 -9.73198591 -0.24324583 0 0 Z " fill="#FEFEFE" transform="translate(941.875,291.875)"/>
<path d="M0 0 C6.36203667 4.36088696 10.8711979 9.49060175 13 17 C14.16121994 26.37542332 13.97138577 35.2012263 8 43 C2.22853619 49.23365496 -4.32688937 53.53673394 -12.91796875 54.23828125 C-22.81496401 54.46294422 -30.03172187 52.60124025 -37.4296875 45.83984375 C-43.096617 39.20023232 -45.41651404 31.12624379 -45.2734375 22.52734375 C-44.33641977 13.86662277 -40.47554798 6.74400072 -34 1 C-24.23322121 -6.02881151 -10.14090889 -6.59746389 0 0 Z " fill="#010101" transform="translate(442,173)"/>
<path d="M0 0 C7.25317513 7.66764228 8.653908 16.06895834 8.4609375 26.21875 C8.12995779 33.36266845 5.79567408 38.88995305 1 44.1875 C-6.39889035 50.77640656 -13.39631173 51.9842412 -23.21484375 51.69921875 C-30.78746507 50.88522362 -36.48219832 47.64280168 -41.8125 42.3125 C-47.29604267 34.92871977 -48.65650978 26.32933783 -47.8125 17.3125 C-46.53756391 9.20556942 -41.82460042 3.67048389 -35.8125 -1.6875 C-24.92267738 -9.57603073 -10.71093419 -6.42656052 0 0 Z " fill="#010101" transform="translate(547.8125,319.6875)"/>
<path d="M0 0 C8.25 0 16.5 0 25 0 C23.39580383 7.21888276 21.5268813 13.90531786 19.1875 20.875 C18.85685547 21.88691406 18.52621094 22.89882812 18.18554688 23.94140625 C15.87770963 30.86048836 13.11343606 37.40364506 10 44 C4.39 44 -1.22 44 -7 44 C-5.9596761 33.59676101 -4.65242526 23.31436063 -2.9375 13 C-2.7631543 11.94361328 -2.58880859 10.88722656 -2.40917969 9.79882812 C-1.1295444 2.2590888 -1.1295444 2.2590888 0 0 Z " fill="#FCFCFC" transform="translate(762,109)"/>
<path d="M0 0 C4.45267812 4.58760776 5.0625 7.70232762 5.0625 14.125 C-11.7675 14.125 -28.5975 14.125 -45.9375 14.125 C-44.85613328 7.63679969 -43.46220275 4.68725216 -38.9375 0.125 C-26.67016187 -8.49184997 -12.50173864 -7.97983318 0 0 Z " fill="#070707" transform="translate(633.9375,172.875)"/>
<path d="M0 0 C4.25519547 3.35747491 6.26505057 6.5699003 7.9140625 11.7109375 C7.9140625 12.7009375 7.9140625 13.6909375 7.9140625 14.7109375 C-8.5859375 14.7109375 -25.0859375 14.7109375 -42.0859375 14.7109375 C-39.81664309 7.90305427 -37.07402484 3.05410666 -30.765625 -0.65234375 C-20.58825279 -5.27078823 -9.85348449 -6.08923199 0 0 Z " fill="#020202" transform="translate(842.0859375,315.2890625)"/>
</svg>
